<svg height="512pt" viewBox="-40 0 512 512.001" width="512pt" xmlns="http://www.w3.org/2000/svg"><path d="m381.824219 414.5625c25.15625-10.136719 42.910156-34.777344 42.910156-63.5625 0-27.867188-16.640625-51.847656-40.523437-62.546875l-61.09375-32.453125h-227l-48.089844 32.453125c-23.886719 10.703125-40.527344 34.679687-40.527344 62.546875 0 28.632812 17.566406 53.160156 42.507812 63.398438zm0 0" fill="#7f5c3e"/><path d="m424.734375 351c0 28.789062-17.757813 53.421875-42.910156 63.558594l-29.886719-.007813c25.128906-10.152343 42.878906-34.769531 42.878906-63.550781 0-27.871094-16.640625-51.847656-40.53125-62.550781l-61.089844-32.449219h29.921876l61.089843 32.449219c23.886719 10.703125 40.527344 34.679687 40.527344 62.550781zm0 0" fill="#604837"/><path d="m403.617188 504.5h-375c0-44.910156 15.652343-85.988281 41.792968-118.179688 8.65625-10.691406 18.488282-20.398437 29.277344-28.941406l54-.039062 132.390625-.109375 46.230469-.039063c10.871094 8.570313 20.757812 18.320313 29.488281 29.058594 26.152344 32.199219 41.820313 73.308594 41.820313 118.25zm0 0" fill="#d0e8ef"/><path d="m361.796875 386.25v.101562l-102.089844 66.679688c-6.667969 4.347656-15.578125 2.738281-20.289062-3.679688l-23.378907-31.851562 70.039063-60.269531 46.230469-.039063c10.871094 8.570313 20.757812 18.320313 29.488281 29.058594zm0 0" fill="#79b6d8"/><path d="m216.199219 417.5-23.382813 31.851562c-4.707031 6.417969-13.617187 8.027344-20.289062 3.679688l-102.117188-66.699219v-.011719c8.65625-10.691406 18.488282-20.398437 29.277344-28.941406l54-.039062zm0 0" fill="#79b6d8"/><path d="m403.617188 504.5h-30c0-38.980469-11.789063-75.078125-31.980469-104.980469l20.160156-13.167969v-.101562c26.152344 32.199219 41.820313 73.308594 41.820313 118.25zm0 0" fill="#94ccd3"/><path d="m361.796875 386.25v.101562l-20.160156 13.167969c-3.089844-4.570312-6.367188-9-9.839844-13.269531-8.71875-10.730469-18.597656-20.46875-29.457031-29.03125l29.96875-.027344c10.871094 8.570313 20.757812 18.320313 29.488281 29.058594zm0 0" fill="#3b8bb7"/><path d="m357.617188 276c0 78.148438-63.351563 141.5-141.5 141.5-78.148438 0-141.5-63.351562-141.5-141.5v-69.472656l174.5-56.195313 108.5 61.265625zm0 0" fill="#fcd09f"/><path d="m357.617188 228.949219v47.050781c0 78.148438-63.347657 141.5-141.5 141.5-5.070313 0-10.070313-.269531-15-.789062 71.101562-7.492188 126.5-67.628907 126.5-140.710938v-54.371094c18.371093 6.042969 30 7.320313 30 7.320313zm0 0" fill="#f4b06c"/><path d="m74.746094 113.695312c-9.28125-4.496093-12.582032-16.089843-7.027344-24.78125 31.253906-48.917968 86.035156-81.414062 148.261719-81.414062 62.484375 0 117.460937 32.765625 148.648437 82.015625 5.316406 8.394531 2.179688 19.546875-6.757812 23.898437-8.246094 4.015626-18.117188 1.132813-23.09375-6.574218-25.1875-38.988282-69.027344-64.847656-118.796875-64.847656-50 0-94.019531 26.105468-119.148438 65.398437-4.726562 7.390625-14.191406 10.132813-22.085937 6.304687zm0 0" fill="#515759"/><path d="m357.617188 183.195312v45.75s-55.320313-6.070312-115.320313-54.488281l90.789063-70.921875c15.480468 22.691406 24.53125 50.109375 24.53125 79.660156zm0 0" fill="#7f5c3e"/><path d="m333.085938 103.539062c-28.117188 30.273438-59.589844 53.320313-90.628907 70.832032-.050781.03125-.109375.058594-.160156.089844-85.46875 48.191406-167.679687 54.488281-167.679687 54.488281v-45.75c0-78.148438 63.351562-141.5 141.5-141.5 39.082031 0 74.449218 15.839843 100.0625 41.441406 6.25 6.25 11.90625 13.082031 16.90625 20.398437zm0 0" fill="#aa8452"/><path d="m216.117188 350.035156c-13.53125 0-24.5-10.972656-24.5-24.5v-15.5c0-2.761718 2.238281-5 5-5h39c2.761718 0 5 2.238282 5 5v15.5c0 13.527344-10.96875 24.5-24.5 24.5zm0 0" fill="#fff"/><path d="m401.617188 268.5h-20v-29h20c2.761718 0 5 2.683594 5 5.445312v19c0 2.761719-2.238282 4.554688-5 4.554688zm0 0" fill="#adadad"/><path d="m391.617188 233.5c0-9.386719-7.609376-17-17-17-9.386719 0-17 7.613281-17 17v41c0 9.390625 7.613281 17 17 17 9.390624 0 17-7.609375 17-17zm0 0" fill="#ccc"/><path d="m74.617188 274.5c0 9.390625-7.609376 17-17 17-9.386719 0-17-7.609375-17-17v-41c0-9.386719 7.613281-17 17-17 9.390624 0 17 7.613281 17 17zm0 0" fill="#ccc"/><path d="m294.617188 349.5c0 8.5625-6.9375 15.5-15.5 15.5-8.558594 0-15.5-6.9375-15.5-15.5 0-8.558594 6.941406-15.5 15.5-15.5 8.5625 0 15.5 6.941406 15.5 15.5zm0 0" fill="#515759"/><path d="m30.171875 268.5h20.445313v-29h-20c-2.757813 0-5 2.238281-5 5v19.445312c0 2.515626 2.039062 4.554688 4.554687 4.554688zm0 0" fill="#adadad"/><path d="m57.617188 216.5c9.390624 0 17 7.613281 17 17v41c0 9.390625-7.609376 17-17 17-9.386719 0-17-7.609375-17-17v-41c0-9.386719 7.613281-17 17-17zm0 0" fill="#ccc"/><path d="m357.617188 183.199219v45.75s-11.628907-1.277344-30-7.320313v-38.429687c0-21.707031-4.878907-42.257813-13.621094-60.636719 6.5-6 12.882812-12.332031 19.089844-19.023438 15.480468 22.691407 24.53125 50.113282 24.53125 79.660157zm0 0" fill="#604837"/><path d="m333.085938 103.539062c-6.207032 6.691407-12.589844 13.023438-19.089844 19.023438-.46875-1-.949219-2-1.449219-2.980469-2.808594-5.570312-5.96875-10.929687-9.457031-16.042969-5-7.316406-10.660156-14.148437-16.910156-20.398437-22.292969-22.28125-51.960938-37.160156-85.042969-40.648437 4.921875-.519532 9.921875-.792969 14.980469-.792969 39.082031 0 74.449218 15.839843 100.0625 41.441406 6.25 6.25 11.90625 13.082031 16.90625 20.398437zm0 0" fill="#7f5c3e"/><path d="m268.933594 100.207031c-35.304688 29.34375-91.320313 66.9375-157.703125 79.394531-4.070313.765626-6.753907 4.683594-5.988281 8.757813.675781 3.601563 3.824218 6.117187 7.363281 6.117187.457031 0 .921875-.042968 1.390625-.132812 69.546875-13.046875 127.855468-52.121094 164.523437-82.601562 3.1875-2.644532 3.621094-7.375.972657-10.558594-2.644532-3.1875-7.375-3.625-10.558594-.976563zm0 0"/><path d="m128.824219 156.472656c.527343 0 1.066406-.054687 1.601562-.171875 21.953125-4.777343 64.632813-17.53125 103.835938-49.238281 3.222656-2.605469 3.71875-7.328125 1.117187-10.550781-2.609375-3.21875-7.328125-3.71875-10.550781-1.113281-36.796875 29.761718-76.9375 41.75-97.59375 46.246093-4.046875.882813-6.613281 4.875-5.730469 8.925781.761719 3.507813 3.871094 5.902344 7.320313 5.902344zm0 0"/><path d="m152.617188 246.46875c-4.140626 0-7.5 3.359375-7.5 7.5v15c0 4.140625 3.359374 7.5 7.5 7.5 4.144531 0 7.5-3.359375 7.5-7.5v-15c0-4.140625-3.355469-7.5-7.5-7.5zm0 0"/><path d="m279.617188 276.46875c4.144531 0 7.5-3.359375 7.5-7.5v-15c0-4.140625-3.355469-7.5-7.5-7.5-4.140626 0-7.5 3.359375-7.5 7.5v15c0 4.140625 3.359374 7.5 7.5 7.5zm0 0"/><path d="m238.617188 297.535156h-45c-5.238282 0-9.5 4.261719-9.5 9.5v18.5c0 17.644532 14.355468 32 32 32 17.644531 0 32-14.355468 32-32v-18.5c0-5.238281-4.261719-9.5-9.5-9.5zm-5.5 28c0 9.371094-7.625 17-17 17s-17-7.628906-17-17v-13h34zm0 0"/><path d="m432.234375 351c0-25.246094-12.679687-48.710938-33.117187-62.734375v-12.265625h2.5c7.007812 0 12.5-5.292969 12.5-12.054688v-19c0-7.015624-5.722657-12.945312-12.5-12.945312h-2.5v-48.6875c0-28.394531-6.308594-55.578125-18.75-80.792969-.382813-.8125-8.828126-16.113281-9.402344-17.019531-33.902344-53.535156-91.839844-85.5-154.984375-85.5-62.835938 0-120.625 31.730469-154.585938 84.875-.925781 1.453125-9.507812 17.296875-9.613281 17.5-12.382812 25.070312-18.664062 52.300781-18.664062 80.9375v48.6875h-2.5625c-6.972657 0-12.4375 5.375-12.4375 12.238281v19c0 7.039063 5.582031 12.761719 12.4375 12.761719h2.613281c.226562 3.710938 1.277343 7.203125 2.980469 10.289062-22.207032 13.722657-36.148438 38.246094-36.148438 64.710938 0 28.664062 15.867188 54.441406 40.949219 67.445312-12.914063 26.347657-19.832031 55.648438-19.832031 86.054688 0 4.140625 3.359374 7.5 7.5 7.5h61.5c4.144531 0 7.5-3.359375 7.5-7.5s-3.355469-7.5-7.5-7.5h-53.847657c1.5-36.933594 14.074219-71.804688 35.769531-100.644531l96.382813 62.949219c3.789063 2.472656 8.058594 3.664062 12.285156 3.664062 6.9375 0 13.765625-3.203125 18.15625-9.1875l17.253907-23.5 17.253906 23.5c4.394531 5.984375 11.21875 9.1875 18.15625 9.1875 4.226562 0 8.496094-1.191406 12.285156-3.664062l96.386719-62.953126c21.695312 28.839844 34.265625 63.707032 35.765625 100.648438h-159.164063c-3.074219-8.449219-11.183593-14.5-20.683593-14.5-9.496094 0-17.609376 6.050781-20.679688 14.5h-70.320312c-4.140626 0-7.5 3.359375-7.5 7.5 0 4.144531 3.359374 7.5 7.5 7.5h278.5c4.140624 0 7.5-3.355469 7.5-7.5 0-30.410156-6.914063-59.710938-19.824219-86.058594 25.089843-12.996094 40.941406-38.726562 40.941406-67.441406zm-15 0c0 23.121094-12.804687 43.835938-33.054687 54.234375-10.605469-17.949219-24.167969-34.242187-40.359376-48.234375h18.050782c20.539062 0 37.246094-16.714844 37.246094-37.261719v-12.085937c11.367187 11.289062 18.117187 26.847656 18.117187 43.347656zm-201.117187 59c-73.886719 0-134-60.113281-134-134 0-.167969-.011719-.335938-.023438-.5.011719-.332031.023438-.664062.023438-1 0-4.140625-3.355469-7.5-7.5-7.5-4.140626 0-7.5 3.359375-7.5 7.5 0 5.238281-4.261719 9.5-9.5 9.5-5.238282 0-9.5-4.261719-9.5-9.5v-41c0-5.238281 4.261718-9.5 9.5-9.5 5.238281 0 9.5 4.261719 9.5 9.5v6c0 4.140625 3.359374 7.5 7.5 7.5 4.144531 0 7.5-3.359375 7.5-7.5v-3.792969c21.390624-2.578125 88.523437-13.332031 159.59375-52.335937 48.09375 37.679687 92.027343 48.921875 108.40625 51.984375v40.644531c0 23.980469-6.335938 46.503906-17.417969 66h-31.84375c-3.117188-9.011719-11.679688-15.5-21.738281-15.5-12.679688 0-23 10.316406-23 23 0 12.679688 10.320312 23 23 23 10.058593 0 18.621093-6.492188 21.738281-15.5h21.933593c-24.496093 32.183594-63.195312 53-106.671874 53zm115.726562-294.300781c11.613281 19.832031 18.273438 42.902343 18.273438 67.496093v36.839844c-16.023438-3.394531-53.300782-14.039062-94.308594-44.757812 28.410156-17.054688 53.917968-37.039063 76.035156-59.578125zm31.867188 180.730469c3.285156 1.640624 6.988281 2.570312 10.90625 2.570312 3.367187 0 6.578124-.683594 9.5-1.917969v22.65625c0 12.484375-9.773438 22.261719-22.25 22.261719h-12.191407c6.988281-14.082031 11.808594-29.414062 14.035157-45.570312zm20.40625-21.929688c0 5.238281-4.261719 9.5-9.5 9.5-5.238282 0-9.5-4.261719-9.5-9.5v-41c0-5.238281 4.261718-9.5 9.5-9.5 5.238281 0 9.5 4.261719 9.5 9.5zm-145.34375-106.660156c-67.722657 38.214844-134.109376 49.734375-156.65625 52.710937v-37.355469c0-73.886718 60.113281-134 134-134 43.804687 0 82.765624 21.125 107.230468 53.726563-24.089844 25.007813-52.511718 46.828125-84.574218 64.917969zm48.34375 181.660156c0 4.410156-3.589844 8-8 8-4.410157 0-8-3.589844-8-8s3.589843-8 8-8c4.410156 0 8 3.589844 8 8zm97-166.1875v27.605469c-2.921876-1.234375-6.132813-1.917969-9.5-1.917969-3.367188 0-6.578126.683594-9.5 1.917969v-27.722657c0-21.566406-4.621094-42.066406-12.898438-60.585937 3.046875-.261719 6.074219-1.058594 8.9375-2.453125 3.113281-1.515625 5.824219-3.667969 7.992188-6.277344 9.933593 21.792969 14.96875 45.125 14.96875 69.433594zm-168.136719-168.3125c57.972656 0 111.175781 29.355469 142.3125 78.527344 1.421875 2.242187 1.804687 4.882812 1.082031 7.429687-.71875 2.53125-2.417969 4.5625-4.785156 5.710938-3.917969 1.910156-8.605469 1.148437-11.808594-1.863281-.972656-1.566407-1.972656-3.117188-3-4.644532-.292969-.574218-.660156-1.121094-1.105469-1.617187-26.917969-38.851563-71.816406-64.347657-122.558593-64.347657-53.375 0-100.277344 28.21875-126.59375 70.511719-.125.109375-.25.214844-.367188.332031-2.941406 2.945313-7.417969 3.710938-11.140625 1.910157-2.542969-1.234375-4.367187-3.410157-5.132813-6.132813-.765624-2.707031-.355468-5.5 1.15625-7.863281 31.183594-48.8125 84.25-77.953125 141.941407-77.953125zm-152.972657 98.703125c2.269532 2.8125 5.148438 5.132813 8.464844 6.742187 2.707032 1.3125 5.570313 2.082032 8.449219 2.351563-8.222656 18.472656-12.804687 38.910156-12.804687 60.398437v27.722657c-2.921876-1.234375-6.132813-1.917969-9.5-1.917969-3.367188 0-6.574219.683594-9.5 1.917969v-27.605469c0-24.558594 5.019531-47.96875 14.890624-69.609375zm-48.007812 237.296875c0-22.695312 12.769531-43.609375 32.761719-54.078125 3.019531 1.332031 6.351562 2.078125 9.855469 2.078125 3.917968 0 7.621093-.929688 10.90625-2.570312 2.960937 21.476562 10.511718 41.507812 21.632812 59.070312-16.960938 14.320312-31.113281 31.140625-42.097656 49.738281-20.242188-10.40625-33.058594-31.15625-33.058594-54.238281zm171.773438 93.90625c-2.355469 3.207031-6.8125 4.019531-10.148438 1.84375l-95.019531-62.0625c5.324219-5.957031 11.078125-11.597656 17.238281-16.875 24.542969 31.28125 61.3125 52.53125 103.046875 56.503906zm68.835937 1.84375c-3.332031 2.175781-7.789063 1.367188-10.144531-1.84375l-15.117188-20.589844c41.730469-3.96875 78.5-25.222656 103.042969-56.503906 6.164063 5.28125 11.914063 10.917969 17.238281 16.875zm0 0"/></svg>