<svg height="512pt" viewBox="0 0 512 512" width="512pt" xmlns="http://www.w3.org/2000/svg"><path d="m324.5 42.5c0-19.328125-15.671875-35-35-35h-247c-19.328125 0-35 15.671875-35 35v427c0 19.332031 15.671875 35 35 35h247c19.328125 0 35-15.667969 35-35zm0 0" fill="#9e88d8"/><path d="m294.5 440.5c0 2.761719-2.238281 5-5 5h-247c-2.761719 0-5-2.238281-5-5v-398c0-2.761719 2.238281-5 5-5h247c2.761719 0 5 2.238281 5 5zm0 0" fill="#d0e8ef"/><path d="m77.5 263.5h127v-30h-127c-2.761719 0-5 2.238281-5 5v20c0 2.761719 2.238281 5 5 5zm0 0" fill="#fff"/><path d="m324.5 42.5v427c0 19.332031-15.667969 35-35 35h-30c19.332031 0 35-15.667969 35-35v-427c0-19.328125-15.667969-35-35-35h30c19.332031 0 35 15.671875 35 35zm0 0" fill="#7167ba"/><path d="m427.5 217.5v125c0 11.050781-8.949219 20-20 20h-193c-11.050781 0-20-8.949219-20-20v-125c0-4.617188 1.570312-8.878906 4.21875-12.269531 3.640625-4.710938 9.359375-7.730469 15.78125-7.730469h193c6.421875 0 12.140625 3.019531 15.78125 7.730469 2.648438 3.390625 4.21875 7.652343 4.21875 12.269531zm0 0" fill="#ffd47d"/><path d="m37.5 67.5h257v-25c0-2.761719-2.238281-5-5-5h-247c-2.761719 0-5 2.238281-5 5zm0 0" fill="#79b6d8"/><path d="m423.28125 205.230469-17.25 31.640625c-5.261719 9.628906-15.359375 15.628906-26.339844 15.628906h-137.382812c-10.980469 0-21.078125-6-26.339844-15.628906l-17.25-31.640625c3.640625-4.710938 9.359375-7.730469 15.78125-7.730469h193c6.421875 0 12.140625 3.019531 15.78125 7.730469zm0 0" fill="#edaf54"/><path d="m427.5 217.5v125c0 11.050781-8.949219 20-20 20h-30c11.050781 0 20-8.949219 20-20v-95.859375c3.460938-2.550781 6.398438-5.871094 8.53125-9.769531l17.25-31.640625c2.648438 3.390625 4.21875 7.652343 4.21875 12.269531zm0 0" fill="#e89e46"/><path d="m423.28125 205.230469-17.25 31.640625c-2.132812 3.898437-5.070312 7.21875-8.53125 9.769531v-29.140625c0-4.617188-1.570312-8.878906-4.21875-12.269531-3.640625-4.710938-9.359375-7.730469-15.78125-7.730469h30c6.421875 0 12.140625 3.019531 15.78125 7.730469zm0 0" fill="#db8733"/><path d="m407.5 190h-75.5v-147.5c0-23.433594-19.066406-42.5-42.5-42.5h-247c-23.433594 0-42.5 19.066406-42.5 42.5v427c0 23.433594 19.066406 42.5 42.5 42.5h247c23.433594 0 42.5-19.066406 42.5-42.5v-72c0-4.140625-3.359375-7.5-7.5-7.5s-7.5 3.359375-7.5 7.5v72c0 15.164062-12.335938 27.5-27.5 27.5h-247c-15.164062 0-27.5-12.335938-27.5-27.5v-427c0-15.164062 12.335938-27.5 27.5-27.5h247c15.164062 0 27.5 12.335938 27.5 27.5v147.5h-15v-147.5c0-6.894531-5.605469-12.5-12.5-12.5h-247c-6.894531 0-12.5 5.605469-12.5 12.5v398c0 6.894531 5.605469 12.5 12.5 12.5h247c6.894531 0 12.5-5.605469 12.5-12.5v-70.5h105.5c15.164062 0 27.5-12.335938 27.5-27.5v-125c0-6.1875-2.007812-12.023438-5.785156-16.855469-5.226563-6.765625-13.144532-10.644531-21.714844-10.644531zm6.398438 16.769531-14.449219 26.503907c-3.953125 7.234374-11.523438 11.726562-19.757813 11.726562h-137.382812c-8.234375 0-15.804688-4.492188-19.753906-11.71875l-14.453126-26.511719c1.902344-1.140625 4.09375-1.769531 6.398438-1.769531h193c2.304688 0 4.492188.628906 6.398438 1.769531zm-226.898438 49.230469h-107v-15h107zm100 182h-242v-363h214.5c4.140625 0 7.5-3.359375 7.5-7.5s-3.359375-7.5-7.5-7.5h-214.5v-15h242v145h-72.5c-8.570312 0-16.488281 3.878906-21.6875 10.609375-3.800781 4.863281-5.8125 10.703125-5.8125 16.890625v8.5h-109.5c-6.894531 0-12.5 5.605469-12.5 12.5v20c0 6.894531 5.605469 12.5 12.5 12.5h109.5v71.5c0 15.164062 12.335938 27.5 27.5 27.5h72.5zm120.5-83h-193c-6.894531 0-12.5-5.605469-12.5-12.5v-115.585938l7.386719 13.550782c6.582031 12.050781 19.199219 19.535156 32.921875 19.535156h137.382812c13.722656 0 26.339844-7.484375 32.921875-19.539062l7.386719-13.546876v115.585938c0 6.894531-5.605469 12.5-12.5 12.5zm0 0"/><path d="m140 468c-4.140625 0-7.5 3.359375-7.5 7.5s3.359375 7.5 7.5 7.5h52c4.140625 0 7.5-3.359375 7.5-7.5s-3.359375-7.5-7.5-7.5zm0 0"/><path d="m397 325h-35c-4.140625 0-7.5 3.359375-7.5 7.5s3.359375 7.5 7.5 7.5h35c4.140625 0 7.5-3.359375 7.5-7.5s-3.359375-7.5-7.5-7.5zm0 0"/><path d="m397 295h-15c-4.140625 0-7.5 3.359375-7.5 7.5s3.359375 7.5 7.5 7.5h15c4.140625 0 7.5-3.359375 7.5-7.5s-3.359375-7.5-7.5-7.5zm0 0"/><path d="m75.5 292.5c-4.140625 0-7.5 3.359375-7.5 7.5v20c0 4.140625 3.359375 7.5 7.5 7.5s7.5-3.359375 7.5-7.5v-20c0-4.140625-3.359375-7.5-7.5-7.5zm0 0"/><path d="m105 292.5c-4.140625 0-7.5 3.359375-7.5 7.5v20c0 4.140625 3.359375 7.5 7.5 7.5s7.5-3.359375 7.5-7.5v-20c0-4.140625-3.359375-7.5-7.5-7.5zm0 0"/><path d="m135 292.5c-4.140625 0-7.5 3.359375-7.5 7.5v20c0 4.140625 3.359375 7.5 7.5 7.5s7.5-3.359375 7.5-7.5v-20c0-4.140625-3.359375-7.5-7.5-7.5zm0 0"/><path d="m427.5 113c-4.140625 0-7.5 3.359375-7.5 7.5s3.359375 7.5 7.5 7.5c38.320312 0 69.5 31.179688 69.5 69.5 0 4.140625 3.359375 7.5 7.5 7.5s7.5-3.359375 7.5-7.5c0-46.59375-37.90625-84.5-84.5-84.5zm0 0"/><path d="m427.5 142.5c-4.140625 0-7.5 3.359375-7.5 7.5s3.359375 7.5 7.5 7.5c22.054688 0 40 17.945312 40 40 0 4.140625 3.359375 7.5 7.5 7.5s7.5-3.359375 7.5-7.5c0-30.328125-24.671875-55-55-55zm0 0"/><path d="m427.5 172c-4.140625 0-7.5 3.359375-7.5 7.5s3.359375 7.5 7.5 7.5c5.789062 0 10.5 4.710938 10.5 10.5 0 4.140625 3.359375 7.5 7.5 7.5s7.5-3.359375 7.5-7.5c0-14.0625-11.4375-25.5-25.5-25.5zm0 0"/><path d="m165 292.5c-4.140625 0-7.5 3.359375-7.5 7.5v20c0 4.140625 3.359375 7.5 7.5 7.5s7.5-3.359375 7.5-7.5v-20c0-4.140625-3.359375-7.5-7.5-7.5zm0 0"/></svg>